<?xml version="1.0" standalone="no"?>
<!DOCTYPE svg PUBLIC "-//W3C//DTD SVG 1.1//EN" "http://www.w3.org/Graphics/SVG/1.1/DTD/svg11.dtd" >
<svg xmlns="http://www.w3.org/2000/svg" xmlns:xlink="http://www.w3.org/1999/xlink" version="1.1">
<metadata></metadata>
<defs>
<font id="futur_lt_mediumbold" horiz-adv-x="1183" >
<font-face units-per-em="2048" ascent="1638" descent="-410" />
<missing-glyph horiz-adv-x="591" />
<glyph horiz-adv-x="0" />
<glyph unicode="&#xd;" horiz-adv-x="591" />
<glyph unicode=" "  horiz-adv-x="591" />
<glyph unicode="&#x09;" horiz-adv-x="591" />
<glyph unicode="&#xa0;" horiz-adv-x="591" />
<glyph unicode="!" horiz-adv-x="665" d="M150 143q0 76 53 128.5t129 52.5t129 -52.5t53 -128.5t-53 -130t-129 -54t-129 54.5t-53 129.5zM186 444v1100h291v-1100h-291z" />
<glyph unicode="&#x22;" horiz-adv-x="999" d="M180 1544h246l-37 -672h-172zM573 1544h246l-37 -672h-172z" />
<glyph unicode="#" d="M29 354v232h231l49 254h-196v231h239l80 416h217l-80 -416h207l80 416h215l-80 -416h164v-231h-201l-49 -254h193v-232h-242l-68 -354h-217l68 354h-207l-67 -354h-218l68 354h-186zM477 586h209l53 254h-213z" />
<glyph unicode="$" d="M111 293l182 176q20 -43 49 -82t64.5 -69.5t78.5 -49t95 -18.5q90 0 144 60.5t54 146.5q0 53 -24.5 91t-65.5 65.5t-93 51t-107.5 50t-107.5 58.5t-93 77t-65.5 108.5t-24.5 151.5q0 172 93 289t259 147v191h149v-193q104 -12 182 -53t144 -123l-137 -194 q-41 53 -99.5 88.5t-128.5 35.5q-68 0 -121 -45t-53 -116q0 -47 26 -80t66.5 -59.5t93 -50t108 -50.5t107.5 -60.5t94 -82.5t66.5 -115t24.5 -158q0 -88 -25.5 -166.5t-72.5 -143.5t-117 -109t-158 -62v-205h-149v195q-80 8 -144.5 30.5t-116.5 59.5t-95 89t-82 124z" />
<glyph unicode="%" horiz-adv-x="1581" d="M10 1219q0 80 28 147.5t77 115.5t116.5 75.5t145.5 27.5t145.5 -27.5t116.5 -75.5t76.5 -116t27.5 -147q0 -80 -27.5 -146.5t-76.5 -115t-115.5 -76t-146.5 -27.5t-146.5 27.5t-115.5 76t-77 115t-28 146.5zM213 1219q0 -35 11.5 -71t33 -64.5t51 -46t68.5 -17.5 t68.5 17.5t51 46t33 64.5t11.5 71t-11.5 70.5t-33 64t-51 47t-68.5 18.5t-68.5 -18.5t-51 -47t-33 -64.5t-11.5 -70zM303 8l830 1589l139 -69l-828 -1591zM836 324q0 80 27.5 147.5t76.5 115.5t116.5 75.5t145.5 27.5t145.5 -27.5t116.5 -75.5t77 -116t28 -147 q0 -80 -28 -146.5t-77 -115t-115.5 -76t-146.5 -27.5t-146.5 27.5t-115.5 76t-76.5 115t-27.5 146.5zM1038 324q0 -35 11.5 -71t33 -64.5t51 -46t68.5 -17.5t68.5 17.5t51 46t33 64.5t11.5 71t-11.5 70.5t-33 64t-51 47t-68.5 18.5t-68.5 -18.5t-51 -47t-33 -64.5t-11.5 -70 z" />
<glyph unicode="&#x26;" horiz-adv-x="1437" d="M68 410q0 129 59 229t164 172l92 63q-53 76 -89 155t-36 173q0 86 30.5 157t83 121t124 77.5t155.5 27.5t156 -26.5t125 -76.5t84 -121t31 -157q0 -63 -21.5 -117.5t-56.5 -100.5t-81 -84t-95 -71l215 -276l155 199l191 -179l-166 -223l266 -352h-367l-124 156 q-96 -84 -204 -140.5t-239 -56.5q-98 0 -181 34t-143.5 94t-94 142t-33.5 181zM371 436q0 -37 14 -73.5t39 -66.5t58.5 -48.5t72.5 -18.5q70 0 126 43t103 90l-239 322q-31 -23 -61.5 -48.5t-56.5 -56t-41 -65.5t-15 -78zM543 1227q0 -63 37 -115l73 -104l52 43 q41 35 63.5 73.5t22.5 94.5q0 27 -7.5 54t-23 48.5t-38 35t-52.5 13.5q-61 0 -94 -44t-33 -99z" />
<glyph unicode="'" horiz-adv-x="606" d="M180 1544h246l-37 -672h-172z" />
<glyph unicode="(" horiz-adv-x="555" d="M152 676q0 125 11 259t36.5 267t64.5 261t94 241l177 -119q-92 -211 -130 -451.5t-38 -469.5q0 -111 9 -231t28.5 -239.5t51 -234.5t79.5 -215l-177 -121q-57 113 -97 245t-64.5 269t-34.5 274.5t-10 264.5z" />
<glyph unicode=")" horiz-adv-x="555" d="M20 -256q45 100 78 215t52.5 234.5t28.5 239.5t9 231q0 229 -37.5 469.5t-130.5 451.5l177 119q55 -113 94 -241t64.5 -261t36.5 -267t11 -259q0 -127 -10 -264.5t-34.5 -274.5t-64.5 -269t-97 -245z" />
<glyph unicode="*" horiz-adv-x="854" d="M111 1307l71 137l164 -107l-6 207h176l-4 -207l158 107l73 -137l-165 -103l165 -102l-73 -137l-158 106l4 -203h-176l6 203l-160 -106l-73 137l161 102z" />
<glyph unicode="+" d="M68 403v242h403v404h242v-404h403v-242h-403v-403h-242v403h-403z" />
<glyph unicode="," horiz-adv-x="591" d="M53 -303l223 622l263 -28l-295 -617z" />
<glyph unicode="-" horiz-adv-x="675" d="M88 539v235h500v-235h-500z" />
<glyph unicode="." horiz-adv-x="591" d="M115 143q0 76 53 128.5t129 52.5t129 -52.5t53 -128.5t-53 -130t-129 -54t-129 54.5t-53 129.5z" />
<glyph unicode="/" horiz-adv-x="1103" d="M76 -260l753 1997l199 -72l-754 -1997z" />
<glyph unicode="0" d="M39 770q0 125 28.5 267.5t93 264t170 202.5t261.5 81t261 -81t169.5 -202.5t93.5 -264t29 -267.5q0 -82 -12.5 -174t-40 -182t-70.5 -173t-104.5 -145.5t-142.5 -99.5t-183 -37t-183 37t-142.5 99.5t-104.5 145.5t-71 173t-40 182t-12 174zM334 774q0 -39 4 -94 t15.5 -116.5t29.5 -123t47 -109.5t69 -79t93 -31t93 31t68.5 79t47 109.5t30 123t15.5 116.5t4 94t-4 94.5t-15.5 117t-30 121.5t-47 108.5t-68.5 78t-93 29.5t-93 -29.5t-69 -78t-47 -108.5t-29.5 -121.5t-15.5 -117t-4 -94.5z" />
<glyph unicode="1" d="M297 1282v262h504v-1544h-301v1282h-203z" />
<glyph unicode="2" d="M57 0l394 496q41 51 98 122.5t110.5 151.5t90 159t36.5 144q0 41 -13 85t-38.5 81t-62.5 60.5t-84 23.5q-51 0 -88 -24.5t-60.5 -63.5t-34 -86t-8.5 -90h-319q8 111 44 207t99.5 166.5t154.5 111.5t210 41q106 0 197 -38t159 -104.5t106.5 -157.5t38.5 -198 q0 -86 -22.5 -160.5t-59 -143t-85 -132t-101.5 -125.5l-227 -264h506v-262h-1041z" />
<glyph unicode="3" d="M63 446h304q4 -92 62 -158.5t159 -66.5q51 0 89 21.5t64.5 57.5t40 80t13.5 89t-15.5 91t-43 82t-67.5 56.5t-91 16.5l-56 -4v215h33q98 0 147.5 57t49.5 156q0 39 -11.5 73.5t-34 62.5t-55.5 44t-76 16q-41 0 -70.5 -17.5t-51 -45t-32.5 -62t-13 -69.5h-287 q10 100 46 182t96.5 140.5t143 90t187.5 31.5q100 0 182 -30.5t140.5 -88t90 -137.5t31.5 -180q0 -90 -34.5 -179t-112.5 -143q53 -23 91 -64.5t61.5 -94t35 -108.5t11.5 -109q0 -115 -39 -205t-108 -154.5t-163 -98.5t-205 -34q-106 0 -197 37t-158.5 102.5t-108.5 154.5 t-48 193z" />
<glyph unicode="4" d="M6 272v136l688 1165h275v-1059h164v-242h-164v-272h-283v272h-680zM356 514h330v614h-4z" />
<glyph unicode="5" d="M66 164l90 258q59 -86 150 -143.5t198 -57.5q63 0 114.5 25.5t87 67.5t55 97.5t19.5 114.5q0 63 -23.5 118.5t-63.5 97.5t-95 67t-119 25q-66 0 -133 -28t-115 -73h-47l166 811h672v-262h-459l-53 -235l78 4q113 0 205 -43t156.5 -117t100 -171t35.5 -206 q0 -125 -40.5 -227.5t-115.5 -175t-178.5 -112.5t-226.5 -40q-279 0 -458 205z" />
<glyph unicode="6" d="M43 483q0 139 56.5 271.5t131.5 244.5l410 609l221 -160l-317 -449l4 -4q27 10 57.5 15.5t63.5 5.5q106 0 191 -43t144.5 -114t91 -163t31.5 -192q0 -119 -40.5 -219.5t-112.5 -172t-172.5 -112.5t-218.5 -41q-115 0 -213.5 39t-171 107.5t-114.5 165t-42 212.5zM336 492 q0 -51 17.5 -102.5t49 -92.5t77 -66.5t102.5 -25.5t102 25.5t77 66.5t48 92t16 103q0 51 -16 103t-48 93t-77 66.5t-102 25.5t-102.5 -25.5t-77 -66.5t-49 -93t-17.5 -103z" />
<glyph unicode="7" d="M88 1282v262h1104l-846 -1585l-248 141l637 1182h-647z" />
<glyph unicode="8" d="M92 412q0 135 61.5 240.5t188.5 152.5q-96 47 -149.5 140t-53.5 200q0 98 35 180t96.5 139.5t143.5 89t178 31.5q94 0 177 -31.5t144.5 -89t96 -139.5t34.5 -180q0 -106 -53 -199.5t-149 -140.5q127 -47 188.5 -152.5t61.5 -240.5q0 -104 -42 -188.5t-111 -142.5 t-159 -90t-188 -32t-188.5 32t-159 90t-110.5 142t-42 189zM395 444q0 -43 13.5 -85t38 -75.5t61.5 -54t84 -20.5t84 20.5t61.5 54t37.5 75.5t13 85t-13 85t-37.5 76t-61.5 55.5t-84 21.5t-84 -21.5t-61.5 -55.5t-38 -76t-13.5 -85zM414 1145q0 -39 12 -78t34.5 -69.5 t55.5 -50t76 -19.5t75.5 19.5t55 50t35 69.5t12.5 78q0 37 -12.5 76t-35 69.5t-55 50t-75.5 19.5t-76 -19.5t-55.5 -50t-34.5 -69.5t-12 -76z" />
<glyph unicode="9" d="M53 1038q0 119 41 220.5t113 173t172 112.5t219 41q115 0 213 -39t171 -107.5t115 -165.5t42 -214q0 -139 -56.5 -271.5t-132.5 -244.5l-409 -609l-222 162l318 449l-4 4q-55 -23 -121 -23q-106 0 -191 43t-144.5 114t-91.5 163t-32 192zM356 1051q0 -53 16.5 -104.5 t48.5 -92.5t77 -66.5t102 -25.5t102.5 25.5t77 66.5t49 92t17.5 105q0 51 -17.5 103t-49 93t-77 66.5t-102.5 25.5t-102 -25.5t-77 -66.5t-48.5 -93t-16.5 -103z" />
<glyph unicode=":" horiz-adv-x="591" d="M115 143q0 76 53 128.5t129 52.5t129 -52.5t53 -128.5t-53 -130t-129 -54t-129 54.5t-53 129.5zM115 881q0 76 53 128t129 52t129 -52.5t53 -127.5q0 -76 -53 -130.5t-129 -54.5t-129 54.5t-53 130.5z" />
<glyph unicode=";" horiz-adv-x="591" d="M33 -303l223 622l262 -28l-295 -617zM197 881q0 76 53 128t129 52t129 -52.5t53 -127.5q0 -76 -53 -130.5t-129 -54.5t-129 54.5t-53 130.5z" />
<glyph unicode="&#x3c;" d="M68 401v246l1048 373v-258l-665 -236v-4l665 -235v-258z" />
<glyph unicode="=" d="M68 162v241h1048v-241h-1048zM68 645v242h1048v-242h-1048z" />
<glyph unicode="&#x3e;" d="M68 29v258l665 235v4l-665 236v258l1048 -373v-246z" />
<glyph unicode="?" horiz-adv-x="997" d="M61 1143q-4 92 28 173t91.5 141.5t141 94t174.5 33.5q94 0 175 -33.5t139 -92t92 -139.5t34 -175q0 -76 -23.5 -144.5t-67.5 -125t-104.5 -96.5t-134.5 -56l-16 -197h-287v408q33 -8 74 -8q51 0 98 15t84 44t58.5 72t21.5 98q0 31 -9 62.5t-26.5 58.5t-44.5 43t-61 16 q-70 0 -104 -53t-34 -115v-24h-299zM268 143q0 76 53.5 128.5t129.5 52.5t129 -52.5t53 -128.5t-53.5 -130t-128.5 -54q-76 0 -129.5 54.5t-53.5 129.5z" />
<glyph unicode="@" horiz-adv-x="1996" d="M252 772q0 174 60.5 322.5t167 257t248.5 171t306 62.5q135 0 257 -43t225 -137q104 -92 166.5 -211t62.5 -264q0 -129 -33 -244t-94 -194q-74 -98 -158 -141.5t-157 -39.5q-43 2 -72 35t-39 92q-53 -53 -119.5 -90t-159.5 -37q-68 0 -130 30t-109 82t-76 121.5 t-29 149.5q0 94 30 182.5t84 157t131 110.5t173 42q78 0 144.5 -33t128.5 -115l28 129h146l-103 -532q-6 -27 -11 -57.5t-5 -57.5t9 -44t36 -17q35 0 71.5 32.5t67.5 88t50.5 127t19.5 149.5q0 129 -40 232.5t-113 174t-172 108.5t-216 38q-129 0 -238.5 -49t-190.5 -135 t-126 -202t-45 -251q0 -141 52 -259t140.5 -202t206 -130t248.5 -46q129 0 220 23.5t149 64.5l153 -123q-55 -31 -110 -56.5t-119.5 -43.5t-142.5 -29.5t-178 -11.5q-166 0 -310.5 61.5t-252 170t-170 257t-62.5 324.5zM745 709q0 -92 46.5 -157t142.5 -65q68 0 117 21.5 t81.5 59.5t51 88.5t24.5 105.5q16 127 -43 187.5t-166 60.5q-61 0 -109 -26t-80 -68t-48.5 -96t-16.5 -111z" />
<glyph unicode="A" horiz-adv-x="1384" d="M-18 0l602 1585h233l586 -1585h-322l-118 326h-537l-127 -326h-317zM512 571h367l-193 562h-4z" />
<glyph unicode="B" horiz-adv-x="1132" d="M111 0v1544h374q106 0 192.5 -22.5t147 -72.5t92 -130t31.5 -195q0 -84 -31.5 -168t-103.5 -131q68 -12 118 -50t83 -92t48 -117.5t15 -127.5q0 -115 -38 -196.5t-103.5 -136t-156.5 -80t-195 -25.5h-473zM412 242h63q61 0 115.5 6t95.5 28.5t65.5 66.5t24.5 120 t-27.5 118t-72.5 62.5t-101.5 24.5t-113.5 4h-49v-430zM412 901h37q55 0 96 9.5t68.5 32t41 62t13.5 99.5q0 59 -16.5 97t-45 60.5t-68.5 32t-87 9.5h-39v-402z" />
<glyph unicode="C" horiz-adv-x="1230" d="M37 760q0 164 55 313.5t155.5 263t241 181t310.5 67.5q92 0 179 -23.5t165 -66.5v-360q-63 78 -152.5 120.5t-187.5 42.5q-109 0 -193 -46t-142 -120.5t-89 -170t-31 -195.5q0 -98 32 -191.5t90 -166t142 -117.5t189 -45q98 0 188 46t154 118v-359q-86 -41 -171 -66.5 t-179 -25.5q-164 0 -302.5 65.5t-238.5 175t-157.5 255t-57.5 305.5z" />
<glyph unicode="D" horiz-adv-x="1323" d="M111 0v1544h430q168 0 305 -59.5t235.5 -162.5t151.5 -244.5t53 -307.5q0 -164 -55 -304t-153.5 -243.5t-235.5 -163t-303 -59.5h-428zM412 262h49q139 0 236.5 37t159 103.5t90 160.5t28.5 209q0 254 -128 382t-386 128h-49v-1020z" />
<glyph unicode="E" horiz-adv-x="999" d="M111 0v1544h798v-262h-497v-340h479v-262h-479v-418h497v-262h-798z" />
<glyph unicode="F" horiz-adv-x="948" d="M111 0v1544h766v-262h-465v-340h436v-262h-436v-680h-301z" />
<glyph unicode="G" horiz-adv-x="1513" d="M37 766q0 166 53 314.5t151.5 260t237.5 178t312 66.5q199 0 359.5 -95t250.5 -273l-266 -144q-47 104 -139.5 175t-213.5 71q-109 0 -190.5 -50t-136 -130t-81 -178.5t-26.5 -194.5t27.5 -192.5t82 -174t136.5 -126t190 -48.5q70 0 133.5 29t111.5 77t77 111.5t31 132.5 h-328v246h666v-39q0 -164 -42 -312t-129 -262t-219.5 -181.5t-312.5 -67.5q-170 0 -305 66.5t-231.5 177t-147.5 257t-51 306.5z" />
<glyph unicode="H" horiz-adv-x="1380" d="M111 0v1544h301v-608h557v608h301v-1544h-301v690h-557v-690h-301z" />
<glyph unicode="I" horiz-adv-x="520" d="M111 0v1544h301v-1544h-301z" />
<glyph unicode="J" horiz-adv-x="796" d="M-45 104l192 222q10 -35 45 -68t72 -33q55 0 82 41t38 98q10 51 10 106v10q-1 59 -1 95v969h301v-1020q0 -53 -2 -103t-11 -98.5t-26.5 -95.5t-50.5 -94q-59 -88 -150.5 -131t-195.5 -43q-86 0 -166 43t-137 102z" />
<glyph unicode="K" horiz-adv-x="1269" d="M111 0v1544h301v-651h4l477 651h371l-586 -713l618 -831h-387l-493 694h-4v-694h-301z" />
<glyph unicode="L" horiz-adv-x="823" d="M111 0v1544h301v-1282h426v-262h-727z" />
<glyph unicode="M" horiz-adv-x="1712" d="M23 0l260 1585h213l381 -1018l364 1018h217l232 -1585h-304l-122 958h-4l-351 -978h-104l-338 978h-4l-137 -958h-303z" />
<glyph unicode="N" horiz-adv-x="1554" d="M111 0v1585h217l813 -1079h4v1038h301v-1575h-217l-813 1080h-4v-1049h-301z" />
<glyph unicode="O" horiz-adv-x="1601" d="M37 774q0 162 56.5 309.5t156.5 259t240.5 177t310.5 65.5q168 0 309 -65.5t241.5 -177t157 -259t56.5 -309.5q0 -166 -56.5 -314.5t-157 -259t-241.5 -176t-309 -65.5q-170 0 -310.5 65.5t-240.5 176t-156.5 259t-56.5 314.5zM348 786q0 -88 35 -181t95.5 -171 t143.5 -128t179 -50t179 50t143.5 128t95 171t34.5 181q0 94 -33.5 184.5t-93 161t-143.5 113.5t-182 43t-182 -43t-143.5 -113.5t-93.5 -160.5t-34 -185z" />
<glyph unicode="P" horiz-adv-x="1081" d="M111 0v1544h409q121 0 220.5 -25.5t169 -83t107.5 -148.5t38 -222q0 -248 -128 -367.5t-366 -119.5h-149v-578h-301zM412 827h61q68 0 119 9.5t86 35t52.5 72.5t17.5 123q0 74 -20.5 119t-57.5 69.5t-89.5 31.5t-115.5 7h-53v-467z" />
<glyph unicode="Q" horiz-adv-x="1601" d="M37 774q0 162 56.5 309.5t156.5 259t240.5 177t310.5 65.5q168 0 309 -65.5t241.5 -177t157 -259t56.5 -309.5q0 -158 -46 -300t-137 -259l211 -250l-303 -31l-106 129q-78 -53 -177.5 -78.5t-205.5 -25.5q-170 0 -310.5 65.5t-240.5 176t-156.5 259t-56.5 314.5z M348 756q0 -96 30 -187.5t86 -162t141 -113.5t196 -43q41 0 86 15.5t76 35.5l-254 293l311 24l137 -155q51 63 73.5 151t22.5 168q0 94 -32.5 186.5t-92 166t-143.5 118.5t-184 45q-111 0 -195 -47t-141 -123.5t-87 -174t-30 -197.5z" />
<glyph unicode="R" horiz-adv-x="1142" d="M111 0v1544h407q115 0 210 -26.5t162.5 -83t105.5 -144.5t38 -211q0 -74 -20.5 -145.5t-60.5 -130t-98 -99t-136 -53.5l436 -651h-364l-375 623h-4v-623h-301zM412 834h39q61 0 113 10t90 37.5t58.5 72.5t20.5 117t-21.5 116t-59.5 68.5t-89 33.5t-110 9h-41v-464z" />
<glyph unicode="S" horiz-adv-x="1077" d="M47 260l195 191q14 -45 41.5 -86t64.5 -72t80 -49.5t92 -18.5q45 0 82 18.5t63.5 49.5t40 70.5t13.5 85.5q0 59 -24.5 100t-63.5 68.5t-87 46t-93 36.5q-74 31 -137.5 67t-109.5 85t-72 114.5t-26 155.5q0 96 34 180t94.5 147.5t142.5 99.5t180 36q51 0 110.5 -12 t117 -34.5t108.5 -54.5t86 -71l-141 -209q-43 59 -99.5 93t-132.5 34q-37 0 -70.5 -13t-59 -35.5t-42 -55.5t-16.5 -70q0 -66 45 -104.5t113.5 -69.5t147.5 -63.5t147.5 -86t113.5 -135.5t45 -211q0 -117 -34.5 -213t-100.5 -166.5t-160 -109.5t-213 -39q-160 0 -277.5 83 t-197.5 218z" />
<glyph unicode="T" horiz-adv-x="923" d="M0 1282v262h924v-262h-312v-1282h-301v1282h-311z" />
<glyph unicode="U" horiz-adv-x="1351" d="M102 621v923h301v-864q0 -72 6.5 -153t34 -148.5t82 -112.5t150.5 -45t150.5 45t82 112.5t33.5 148.5t6 153v864h301v-923q0 -141 -31.5 -262t-100 -210.5t-177.5 -139.5t-264 -50q-156 0 -264.5 50t-177 139.5t-100.5 210t-32 262.5z" />
<glyph unicode="V" horiz-adv-x="1308" d="M-29 1544h324l371 -1040h4l344 1040h323l-600 -1585h-176z" />
<glyph unicode="W" horiz-adv-x="2000" d="M-29 1544h316l311 -1052h4l307 1073h178l320 -1073h4l303 1052h316l-523 -1575h-221l-307 1010h-4l-291 -1010h-221z" />
<glyph unicode="X" horiz-adv-x="1275" d="M-16 0l493 817l-416 727h357l246 -479l225 479h356l-428 -727l475 -817h-350l-311 565l-295 -565h-352z" />
<glyph unicode="Y" horiz-adv-x="1202" d="M-33 1544h350l271 -536l295 536h352l-487 -835v-709h-302v709z" />
<glyph unicode="Z" horiz-adv-x="1177" d="M10 0l680 1282h-575v262h1052l-678 -1282h641v-262h-1120z" />
<glyph unicode="[" horiz-adv-x="589" d="M92 -186v1917h406v-187h-189v-1544h189v-186h-406z" />
<glyph unicode="\" horiz-adv-x="1103" d="M61 1737h230l753 -1737h-229z" />
<glyph unicode="]" horiz-adv-x="589" d="M92 0h189v1544h-189v187h406v-1917h-406v186z" />
<glyph unicode="^" d="M68 674l395 870h254l399 -870h-264l-260 579l-260 -579h-264z" />
<glyph unicode="_" horiz-adv-x="1024" d="M0 -231h1024v-154h-1024v154z" />
<glyph unicode="`" horiz-adv-x="778" d="M162 1458l209 127l245 -344l-145 -90z" />
<glyph unicode="a" horiz-adv-x="1157" d="M31 508q0 100 30.5 195.5t90 170t144.5 119.5t193 45q78 0 153 -32.5t128 -94.5v95h283v-1006h-283v92h-4q-47 -59 -121 -92t-151 -33q-111 0 -197 46t-145.5 122t-90 173.5t-30.5 199.5zM322 504q0 -51 16 -101.5t47 -90.5t75 -65.5t99 -25.5t99 25.5t76 65.5t48.5 90.5 t16.5 101.5t-16.5 101t-48.5 90t-76 64.5t-99 24.5t-99 -24.5t-75 -64.5t-47 -90t-16 -101z" />
<glyph unicode="b" horiz-adv-x="1157" d="M102 0v1737h287v-824q49 59 124 92t155 33q106 0 191 -46t144.5 -120.5t91 -170t31.5 -193.5q0 -102 -30.5 -199.5t-90 -173.5t-146.5 -122t-197 -46q-78 0 -152 33t-117 94h-4v-94h-287zM360 504q0 -51 16.5 -101.5t47.5 -90.5t75 -65.5t99 -25.5t99 25.5t75 65.5 t47.5 90.5t16.5 101.5t-16.5 101t-47.5 90t-75 64.5t-99 24.5t-99 -24.5t-75 -64.5t-47.5 -90t-16.5 -101z" />
<glyph unicode="c" horiz-adv-x="862" d="M31 500q0 113 39 211t108.5 170.5t164.5 114.5t210 42q59 0 119.5 -15t113.5 -48v-277q-47 47 -96 73t-115 26q-61 0 -108 -26t-79 -69t-49 -96t-17 -108q0 -59 18 -111.5t52 -92.5t83 -62.5t111 -22.5q59 0 110.5 26.5t89.5 69.5v-276q-59 -33 -120.5 -47.5 t-126.5 -14.5q-111 0 -204 43t-161 116t-105.5 169t-37.5 205z" />
<glyph unicode="d" horiz-adv-x="1157" d="M31 508q0 100 30.5 195.5t90 170t144.5 119.5t193 45q78 0 153 -32.5t122 -92.5h4v824h287v-1737h-287v94h-4q-45 -61 -119 -94t-151 -33q-111 0 -197 46t-145.5 122t-90 173.5t-30.5 199.5zM322 504q0 -51 16 -101.5t47 -90.5t75 -65.5t99 -25.5t99 25.5t75 65.5 t47.5 90.5t16.5 101.5t-16.5 101t-47.5 90t-75 64.5t-99 24.5t-99 -24.5t-75 -64.5t-47 -90t-16 -101z" />
<glyph unicode="e" horiz-adv-x="1026" d="M31 494q0 115 30.5 214t91 172.5t151.5 115.5t214 42t213 -43t148.5 -116.5t87 -174t28.5 -212.5v-35h-661q0 -47 10 -95.5t32.5 -87t61.5 -63.5t94 -25q72 0 118 39t75 99l264 -43q-53 -152 -175 -233t-282 -81q-117 0 -210 39t-157.5 109.5t-99 167t-34.5 211.5z M342 635h383q-6 39 -20.5 74.5t-39 64.5t-57.5 46.5t-73 17.5q-43 0 -77 -17.5t-57.5 -45t-38 -64.5t-20.5 -76z" />
<glyph unicode="f" horiz-adv-x="620" d="M16 764v242h97v294q0 92 20.5 176.5t65.5 147t116.5 100t176.5 37.5q74 0 137 -32v-256q-29 14 -56.5 24t-60.5 10q-47 0 -70.5 -27.5t-33 -65.5t-9.5 -81v-73v-254h230v-242h-230v-764h-286v764h-97z" />
<glyph unicode="g" horiz-adv-x="1150" d="M31 496q0 104 30.5 201.5t90 173t146.5 121.5t200 46q76 0 146.5 -34.5t113.5 -94.5h4v97h287v-945q0 -123 -24 -231.5t-79 -190t-149.5 -129t-235.5 -47.5q-92 0 -181 28t-159.5 81t-116 131t-51.5 178h303q10 -80 63.5 -128t135.5 -48q76 0 118 29.5t61.5 78 t23.5 106.5t4 116v65h-4q-47 -61 -121 -97t-154 -36q-111 0 -195.5 44t-141 118t-86 169t-29.5 198zM322 502q0 -51 16 -101.5t47 -90.5t75 -64.5t99 -24.5t99 24.5t75 64.5t47.5 90.5t16.5 101.5t-16.5 101t-47.5 90t-75 65.5t-99 25.5t-99 -25.5t-75 -65.5t-47 -90 t-16 -101z" />
<glyph unicode="h" horiz-adv-x="1105" d="M102 0v1737h287v-815h4q45 61 115 88.5t147 27.5q100 0 168 -33.5t108 -91t56.5 -134.5t16.5 -165v-614h-287v532q0 45 -2 94.5t-15.5 89.5t-45 66.5t-93.5 26.5q-63 0 -98 -32t-51.5 -79t-19.5 -101t-3 -99v-498h-287z" />
<glyph unicode="i" horiz-adv-x="518" d="M90 1427q0 70 49 120t121 50t121 -50t49 -120q0 -72 -49 -121t-121 -49t-121 49.5t-49 120.5zM117 0v1006h286v-1006h-286z" />
<glyph unicode="j" horiz-adv-x="518" d="M90 1427q0 70 49 120t121 50t121 -50t49 -120q0 -72 -49 -121t-121 -49t-121 49.5t-49 120.5zM117 -537v1543h286v-1543h-286z" />
<glyph unicode="k" horiz-adv-x="1077" d="M102 0v1737h287v-1100h4l301 369h373l-424 -443l457 -563h-377l-330 428h-4v-428h-287z" />
<glyph unicode="l" horiz-adv-x="489" d="M102 0v1737h287v-1737h-287z" />
<glyph unicode="m" horiz-adv-x="1642" d="M102 0v1006h287v-91h4q41 59 108.5 91t137.5 32q193 0 289 -157q47 74 126 115.5t167 41.5q96 0 157.5 -33.5t97 -90t50 -131t14.5 -156.5v-627h-287v528q0 37 -1 85.5t-13 92.5t-40 73.5t-81 29.5q-59 0 -90 -35t-45 -84t-16 -103.5t-2 -92.5v-494h-287v510v88t-12.5 98 t-41 80t-83.5 33q-59 0 -91 -35t-45.5 -84t-14.5 -103.5t-1 -92.5v-494h-287z" />
<glyph unicode="n" horiz-adv-x="1105" d="M102 0v1006h287v-93h4q45 68 115 96.5t147 28.5q100 0 168 -33.5t108 -91t56.5 -134.5t16.5 -165v-614h-287v532q0 45 -2 94.5t-15.5 89.5t-45 66.5t-93.5 26.5q-63 0 -98 -32t-51.5 -79t-19.5 -101t-3 -99v-498h-287z" />
<glyph unicode="o" horiz-adv-x="1122" d="M33 502q0 117 39 216t108.5 169.5t166.5 110.5t214 40t214 -40t167 -110.5t109 -170t39 -215.5q0 -117 -38 -215.5t-108 -169t-167 -110.5t-216 -40t-216 40t-166.5 110.5t-107.5 169t-38 215.5zM324 502q0 -51 16 -101.5t47 -90.5t75 -64.5t99 -24.5t99.5 24.5t75 64.5 t47 90.5t16.5 101.5t-16.5 102t-47 91t-75 64.5t-99.5 24.5t-99 -24.5t-75 -64.5t-47 -91t-16 -102z" />
<glyph unicode="p" horiz-adv-x="1157" d="M102 -537v1543h287v-93q49 59 124 92t155 33q106 0 191 -46t144.5 -120.5t91 -170t31.5 -193.5q0 -102 -30.5 -199.5t-90 -173.5t-146.5 -122t-197 -46q-78 0 -152 33t-117 94h-4v-631h-287zM360 504q0 -51 16.5 -101.5t47.5 -90.5t75 -65.5t99 -25.5t99 25.5t75 65.5 t47.5 90.5t16.5 101.5t-16.5 101t-47.5 90t-75 64.5t-99 24.5t-99 -24.5t-75 -64.5t-47.5 -90t-16.5 -101z" />
<glyph unicode="q" horiz-adv-x="1157" d="M31 508q0 100 30.5 195.5t90 170t144.5 119.5t193 45q78 0 153 -32.5t122 -92.5h4v93h287v-1543h-287v631h-4q-45 -61 -119 -94t-151 -33q-111 0 -197 46t-145.5 122t-90 173.5t-30.5 199.5zM322 504q0 -51 16 -101.5t47 -90.5t75 -65.5t99 -25.5t99 25.5t75 65.5 t47.5 90.5t16.5 101.5t-16.5 101t-47.5 90t-75 64.5t-99 24.5t-99 -24.5t-75 -64.5t-47 -90t-16 -101z" />
<glyph unicode="r" horiz-adv-x="751" d="M102 0v1006h287v-105h4q43 66 106.5 101.5t143.5 35.5q31 0 60.5 -7t58.5 -17l-35 -266q-52 36 -116 36h-3q-74 0 -118 -29.5t-66.5 -77.5t-28.5 -107.5t-6 -116.5v-453h-287z" />
<glyph unicode="s" horiz-adv-x="839" d="M41 135l131 170q41 -47 95.5 -82t117.5 -35q47 0 81 30t34 79q0 33 -17.5 54.5t-45 38t-64.5 29.5t-74 29.5t-74 37t-64.5 51t-45 72.5t-17.5 104q0 70 23.5 130t65.5 103t100.5 67.5t130.5 24.5q80 0 171 -25.5t152 -78.5l-123 -166q-31 29 -69.5 49.5t-81.5 20.5 q-35 0 -64.5 -25t-29.5 -61q0 -29 17.5 -47.5t47 -34t66.5 -28.5t75.5 -29.5t75.5 -39t67 -56.5t47 -81t17 -112q0 -84 -31.5 -149.5t-85 -112t-124 -71t-150.5 -24.5q-102 0 -195.5 44t-158.5 124z" />
<glyph unicode="t" horiz-adv-x="561" d="M39 764v242h98v340h287v-340h176v-242h-176v-764h-287v764h-98z" />
<glyph unicode="u" horiz-adv-x="1095" d="M96 414v592h287v-545q0 -43 5 -88t22.5 -81t49.5 -59.5t87 -23.5t87 23.5t49 59.5t22.5 81t5.5 88v545h286v-592q0 -221 -112.5 -334t-337.5 -113t-338 113t-113 334z" />
<glyph unicode="v" horiz-adv-x="999" d="M-37 1006h316l235 -568l207 568h313l-463 -1026h-147z" />
<glyph unicode="w" horiz-adv-x="1603" d="M-37 1006h313l209 -580l246 612h137l248 -620l213 588h311l-466 -1026h-146l-215 612l-240 -612h-147z" />
<glyph unicode="x" horiz-adv-x="1124" d="M-37 0l430 547l-346 459h348l187 -261l159 261h353l-357 -459l424 -547h-352l-258 350l-232 -350h-356z" />
<glyph unicode="y" horiz-adv-x="1064" d="M-37 1006h326l239 -572l258 572h320l-731 -1543h-316l332 691z" />
<glyph unicode="z" horiz-adv-x="985" d="M-2 0l514 764h-434v242h907l-510 -764h477v-242h-954z" />
<glyph unicode="{" horiz-adv-x="796" d="M139 614v150q78 35 116 113.5t38 195.5v373q0 61 18.5 111.5t45 85t57 54t53.5 19.5h188v-186h-82q-47 0 -55 -38t-8 -89v-363q0 -88 -20.5 -151.5t-47 -105.5t-52 -65.5t-36.5 -29.5q10 -6 36 -28.5t52.5 -64.5t47 -105.5t20.5 -151.5v-363q0 -51 8 -89t55 -38h82v-186 h-188q-23 0 -53.5 19.5t-57 54.5t-45 85t-18.5 111v373q0 117 -38 196t-116 113z" />
<glyph unicode="|" horiz-adv-x="1101" d="M430 0v1737h242v-1737h-242z" />
<glyph unicode="}" horiz-adv-x="796" d="M141 -152h82q47 0 55.5 38t8.5 89v363q0 88 20.5 151.5t47 105.5t52 64.5t35.5 28.5q-10 6 -35.5 29.5t-52 65.5t-47 105.5t-20.5 151.5v363q0 51 -8.5 89t-55.5 38h-82v186h189q23 0 53.5 -19.5t57 -54t45 -85t18.5 -111.5v-373q0 -117 38 -195.5t115 -113.5v-150 q-78 -35 -115.5 -113.5t-37.5 -195.5v-373q0 -61 -18.5 -111t-45 -85t-57.5 -54.5t-53 -19.5h-189v186z" />
<glyph unicode="~" d="M68 487q29 37 60.5 88.5t69.5 97.5t83 78.5t100 32.5q57 0 117.5 -31.5t111.5 -72.5q41 -35 96.5 -65.5t96.5 -30.5q18 0 34.5 17t31 43t26.5 53.5t18 45.5l203 -184q-25 -41 -55.5 -92t-68.5 -96t-85 -75t-102 -30q-66 0 -119 31t-100 59q-59 37 -109.5 73t-91.5 36 q-16 0 -32.5 -16.5t-32 -40t-28.5 -51t-22 -50.5z" />
<glyph unicode="&#xa1;" horiz-adv-x="665" d="M150 872q0 76 53 128.5t129 52.5t129 -52.5t53 -128.5t-53 -130t-129 -54t-129 54.5t-53 129.5zM186 -541v1100h291v-1100h-291z" />
<glyph unicode="&#xa2;" d="M215 776q0 100 28.5 191.5t84 163t135.5 118.5t184 62v172h150v-178q43 -8 87 -18.5t83 -33.5v-288q-47 51 -92.5 76.5t-114.5 25.5q-61 0 -108.5 -25.5t-79 -66.5t-49 -95.5t-17.5 -109.5t17.5 -107.5t50 -91.5t80.5 -62.5t108 -23.5q59 0 113.5 28t87.5 75h4v-289 q-78 -41 -170 -51v-191h-150v187q-102 8 -182 56t-135.5 122t-85 166t-29.5 188z" />
<glyph unicode="&#xa3;" d="M20 39q16 51 42 104.5t63 95.5t85 69.5t109 29.5q23 61 23 121q0 88 -45 172h-268v135h190q-35 68 -59.5 153t-24.5 160q0 113 40 206t109.5 159.5t164 103.5t204.5 37q127 0 217.5 -39t148.5 -108.5t87 -166.5t35 -214l-301 -35l4 70q2 41 -11.5 84t-40 77.5t-64.5 57 t-83 22.5q-53 0 -93 -23.5t-66.5 -60.5t-40 -84t-13.5 -94q0 -78 25.5 -147.5t60.5 -137.5l10 -20h279v-135h-229q6 -37 8 -78t0 -82l-4 -78l-4 -78l137 -55q78 -33 129 -33t75.5 39t36.5 82l213 -45q-16 -61 -39.5 -119.5t-60.5 -102.5t-89 -70.5t-126 -26.5 q-59 0 -120.5 18t-123.5 41q-59 23 -117.5 41t-111.5 18q-51 0 -86 -27.5t-51 -74.5z" />
<glyph unicode="&#xa4;" d="M25 227l122 113q-35 51 -56 118.5t-21 155.5t21.5 156t55.5 119l-122 112l151 152l127 -117q47 39 119 64.5t170 25.5t170 -25.5t119 -64.5l127 117l151 -152l-123 -112q35 -51 56.5 -119t21.5 -156t-21.5 -155.5t-56.5 -118.5l123 -113l-151 -151l-127 117 q-47 -39 -119 -65t-170 -26t-170 26t-119 65l-127 -117zM266 614q0 -66 24.5 -123t68.5 -100t103.5 -67.5t129.5 -24.5q68 0 127 24.5t103 67.5t70 100.5t26 122.5q0 70 -25 128.5t-68 99.5t-103 64.5t-130 23.5q-72 0 -131.5 -23.5t-102.5 -64.5t-67.5 -99.5t-24.5 -128.5z " />
<glyph unicode="&#xa5;" d="M-43 1544h350l283 -536l284 536h351l-357 -624h275v-136h-359l-43 -75v-74h402v-135h-402v-500h-301v500h-401v135h401v74l-49 75h-352v136h274z" />
<glyph unicode="&#xa6;" horiz-adv-x="1101" d="M430 0v694h242v-694h-242zM430 1042v695h242v-695h-242z" />
<glyph unicode="&#xa7;" horiz-adv-x="1181" d="M82 817q0 100 41 183t110 151q-33 47 -50 108.5t-17 120.5q0 86 32.5 157t88 121t130.5 76.5t158 26.5q82 0 156 -24.5t129 -70.5t89 -112.5t38 -152.5h-256q-8 61 -48 105t-108 44q-59 0 -92.5 -48t-33.5 -103q0 -39 15 -67.5t38.5 -51.5t53.5 -41t60 -35l220 -123 q55 -31 104 -62.5t84 -71.5t55.5 -92t20.5 -122q0 -92 -39 -179t-105 -148q41 -49 61.5 -119t20.5 -133q0 -92 -32.5 -169t-92 -134.5t-143.5 -89t-186 -31.5q-104 0 -193.5 32.5t-155 93t-101.5 148.5t-30 199h283q0 -43 12.5 -87t39 -78t63.5 -55.5t86 -21.5 q37 0 67.5 15.5t52 40t34 57t12.5 69.5q0 39 -15.5 69t-40 52.5t-55.5 41t-61 34.5l-273 147q-53 29 -95 60t-70.5 69.5t-45 88t-16.5 112.5zM338 879q0 -39 12 -65t31.5 -46t46.5 -35.5t55 -32.5l285 -174q35 29 55.5 72t20.5 88q0 35 -11.5 60.5t-30 44t-43 34t-50.5 31.5 l-289 178q-35 -27 -58.5 -68.5t-23.5 -86.5z" />
<glyph unicode="&#xa8;" horiz-adv-x="819" d="M31 1397q0 68 48 116t116 48t115.5 -48.5t47.5 -115.5q0 -68 -48 -116t-115 -48q-68 0 -116 48t-48 116zM463 1397q0 68 48 116t116 48t116 -48.5t48 -115.5q0 -68 -48.5 -116t-115.5 -48q-68 0 -116 48t-48 116z" />
<glyph unicode="&#xa9;" horiz-adv-x="1638" d="M12 772q0 170 62.5 318.5t172 258t256 173t316.5 63.5q168 0 315.5 -63.5t257 -173t172 -258t62.5 -318.5t-62.5 -318.5t-172 -258t-257 -173t-315.5 -63.5q-170 0 -316.5 63.5t-256 173t-172 258t-62.5 318.5zM188 772q0 -135 49.5 -252t135.5 -203t200.5 -134 t245.5 -48t246 48t201 134t135 203t49 252q0 137 -49 254t-135 202t-201 133t-246 48t-245.5 -48t-200.5 -133t-135.5 -202t-49.5 -254zM362 778q0 100 34 190.5t95.5 158t145.5 107.5t182 40q84 0 154.5 -25.5t123 -69.5t87.5 -105.5t49 -133.5h-180q-10 41 -34 70.5 t-55.5 49t-69.5 29t-75 9.5q-63 0 -114.5 -28t-88 -73t-57 -102t-20.5 -117q0 -59 20.5 -116.5t57 -102.5t88 -72.5t114.5 -27.5q37 0 75 9t69.5 28.5t55 49t34.5 70.5h180q-14 -72 -49 -133t-87.5 -106t-123 -69.5t-154.5 -24.5q-98 0 -182 39.5t-145.5 107.5t-95.5 158 t-34 190z" />
<glyph unicode="&#xaa;" horiz-adv-x="694" d="M16 680v151h664v-151h-664zM16 1266q0 59 20.5 116.5t58.5 102.5t93.5 72.5t126.5 27.5q51 0 99.5 -19.5t83.5 -56.5v56h182v-602h-182v55h-4q-29 -37 -77 -56.5t-100 -19.5q-72 0 -128 27.5t-95 74t-58.5 103.5t-19.5 119zM205 1264q0 -31 11 -60.5t30.5 -54.5t48 -40 t65.5 -15t66 15t48.5 40t30.5 54.5t11 60.5t-11 61.5t-30.5 54t-48.5 39t-66 15.5t-65.5 -15.5t-48 -39t-30.5 -54.5t-11 -61z" />
<glyph unicode="&#xab;" horiz-adv-x="1052" d="M37 655l325 498l177 -115l-254 -383l256 -372l-179 -119zM446 655l326 498l176 -115l-254 -383l256 -372l-178 -119z" />
<glyph unicode="&#xac;" d="M68 645v242h1048v-596h-242v354h-806z" />
<glyph unicode="&#xad;" horiz-adv-x="675" d="M88 539v235h500v-235h-500z" />
<glyph unicode="&#xae;" horiz-adv-x="1638" d="M12 772q0 170 62.5 318.5t172 258t256 173t316.5 63.5q168 0 315.5 -63.5t257 -173t172 -258t62.5 -318.5t-62.5 -318.5t-172 -258t-257 -173t-315.5 -63.5q-170 0 -316.5 63.5t-256 173t-172 258t-62.5 318.5zM188 772q0 -135 49.5 -252t135.5 -203t200.5 -134 t245.5 -48t246 48t201 134t135 203t49 252q0 137 -49 254t-135 202t-201 133t-246 48t-245.5 -48t-200.5 -133t-135.5 -202t-49.5 -254zM481 354v844h410q74 0 134 -9t103 -37t67 -78t24 -134q0 -233 -230 -250l205 -336h-193l-196 336h-148v-336h-176zM657 842h238 q72 0 112 21.5t40 90.5q0 35 -18.5 53.5t-48.5 27.5t-63.5 10.5t-64.5 1.5h-195v-205z" />
<glyph unicode="&#xaf;" horiz-adv-x="819" d="M18 1364v180h783v-180h-783z" />
<glyph unicode="&#xb0;" horiz-adv-x="819" d="M102 1278q0 63 24 118.5t65.5 97.5t98 66.5t120.5 24.5q63 0 118.5 -24.5t97.5 -66.5t66.5 -97.5t24.5 -118.5t-24.5 -119.5t-66.5 -97.5t-97.5 -65.5t-118.5 -24.5t-120 24.5t-97.5 65.5t-65.5 97t-25 120zM242 1278q2 -72 50 -120t120 -48q70 0 118 48t48 120 q0 70 -49 119t-121 49q-70 0 -119 -49t-47 -119z" />
<glyph unicode="&#xb1;" d="M68 0v242h1048v-242h-1048zM68 696v242h403v352h242v-352h403v-242h-403v-352h-242v352h-403z" />
<glyph unicode="&#xb2;" horiz-adv-x="708" d="M16 618l256 297q27 31 64 74t70.5 91t58 95.5t24.5 86.5q0 66 -32.5 108.5t-96.5 42.5q-33 0 -56 -15.5t-38.5 -39t-22.5 -51t-5 -54.5h-207q4 68 27.5 125.5t64.5 99.5t100.5 66.5t136.5 24.5q68 0 127.5 -22.5t103.5 -62.5t69.5 -94.5t25.5 -117.5q0 -102 -52 -183 t-122 -155l-147 -158h327v-158h-676z" />
<glyph unicode="&#xb3;" horiz-adv-x="708" d="M23 903h196q4 -55 41 -95t102 -40q66 0 101 47t35 100q0 27 -9.5 54.5t-28 49t-45 34t-59.5 10.5l-37 -2v129h23q61 0 94 35t33 94q0 47 -29.5 82t-85.5 35q-53 0 -79.5 -37t-28.5 -80h-187q12 121 92 193.5t216 72.5q129 0 208.5 -69.5t79.5 -190.5q0 -53 -22.5 -107.5 t-73.5 -87.5q70 -29 99.5 -95t29.5 -130q0 -68 -25.5 -123t-69.5 -93t-105.5 -58.5t-133.5 -20.5q-70 0 -128 22.5t-102 61.5t-70.5 93.5t-30.5 115.5z" />
<glyph unicode="&#xb4;" horiz-adv-x="778" d="M162 1241l246 344l208 -127l-309 -307z" />
<glyph unicode="&#xb5;" horiz-adv-x="1095" d="M96 -537v1543h287v-545q0 -43 5 -88t22.5 -81t49.5 -59.5t87 -23.5t87 23.5t49 59.5t22.5 81t5.5 88v545h286v-592q0 -221 -112.5 -334t-337.5 -113q-59 0 -95 19.5t-69 42.5v-566h-287z" />
<glyph unicode="&#xb6;" horiz-adv-x="1181" d="M43 1018q-6 92 23.5 186t88 170t142.5 123t186 47h660v-192h-125v-1665h-213v1665h-127v-1665h-213v893q-86 0 -161 29.5t-130 86t-89 137t-42 185.5z" />
<glyph unicode="&#xb7;" horiz-adv-x="591" d="M115 526q0 76 53 128.5t129 52.5t129 -52.5t53 -128.5t-53 -130t-129 -54t-129 54.5t-53 129.5z" />
<glyph unicode="&#xb8;" horiz-adv-x="778" d="M195 -344l200 303l189 -96l-238 -285z" />
<glyph unicode="&#xb9;" horiz-adv-x="708" d="M190 1389v155h328v-926h-196v771h-132z" />
<glyph unicode="&#xba;" horiz-adv-x="694" d="M4 1264q0 70 25.5 129t70.5 102t108.5 66.5t139.5 23.5t139.5 -23.5t108.5 -66.5t70.5 -102.5t25.5 -128.5q0 -72 -24.5 -130.5t-70.5 -101.5t-109.5 -66.5t-139.5 -23.5q-78 0 -140.5 23.5t-108.5 66.5t-70.5 101.5t-24.5 130.5zM16 680v151h664v-151h-664zM195 1266 q0 -31 10 -61.5t30.5 -55.5t48 -40t64.5 -15t64.5 15t48 40t31 55.5t10.5 61.5t-10.5 60.5t-31 54t-48 39t-64.5 14.5t-64.5 -14.5t-48 -39t-30.5 -54.5t-10 -60z" />
<glyph unicode="&#xbb;" horiz-adv-x="1052" d="M102 283l256 372l-254 383l177 115l325 -498l-325 -491zM512 283l256 372l-254 383l176 115l326 -498l-326 -491z" />
<glyph unicode="&#xbc;" horiz-adv-x="1775" d="M82 1389v155h328v-926h-197v771h-131zM365 8l829 1589l139 -69l-827 -1591zM963 164v80l446 700h178v-635h107v-145h-107v-164h-184v164h-440zM1188 309h215v369h-4z" />
<glyph unicode="&#xbd;" horiz-adv-x="1775" d="M82 1389v155h328v-926h-197v771h-131zM270 8l830 1589l139 -69l-827 -1591zM1018 0l256 297q27 31 63.5 74t70.5 91t58.5 95t24.5 86q0 66 -33 109t-96 43q-33 0 -56.5 -15.5t-39 -39t-22.5 -51t-5 -54.5h-207q4 68 27.5 125t64.5 99t100.5 66.5t137.5 24.5 q68 0 127 -22.5t103 -62.5t70 -94t26 -118q0 -102 -52.5 -183t-122.5 -155l-147 -157h328v-158h-676z" />
<glyph unicode="&#xbe;" horiz-adv-x="1775" d="M82 903h197q4 -55 40.5 -95t102.5 -40t100.5 47t34.5 100q0 27 -9 54.5t-27.5 49t-45 34t-59.5 10.5l-37 -2v129h22q61 0 94 35t33 94q0 47 -29.5 82t-84.5 35q-53 0 -80 -37t-29 -80h-186q12 121 92 193.5t215 72.5q129 0 209 -69.5t80 -190.5q0 -53 -22.5 -107.5 t-74.5 -87.5q70 -29 100 -95t30 -130q0 -68 -26 -123t-70 -93t-105.5 -58.5t-132.5 -20.5q-70 0 -128.5 22.5t-102.5 61.5t-70.5 93.5t-30.5 115.5zM471 8l829 1589l140 -69l-828 -1591zM963 164v80l446 700h178v-635h107v-145h-107v-164h-184v164h-440zM1188 309h215v369 h-4z" />
<glyph unicode="&#xbf;" horiz-adv-x="997" d="M61 -100q0 76 24 144.5t68 124.5t104 96t134 57l17 196h286v-407q-33 8 -73 8q-51 0 -98.5 -15.5t-84.5 -44t-58.5 -71.5t-21.5 -99q0 -31 9.5 -62.5t27 -58t44 -43t61.5 -16.5q70 0 103.5 53.5t33.5 114.5v25h299q4 -92 -27.5 -173t-91 -141.5t-141.5 -94.5t-174 -34 q-94 0 -175 34t-139.5 92.5t-92.5 139t-34 175.5zM365 872q0 76 53 128.5t129 52.5t129 -52.5t53 -128.5t-53 -130t-129 -54t-129 54.5t-53 129.5z" />
<glyph unicode="&#xc0;" horiz-adv-x="1384" d="M-18 0l602 1585h233l586 -1585h-322l-118 326h-537l-127 -326h-317zM465 1997l209 127l246 -344l-146 -90zM512 571h367l-193 562h-4z" />
<glyph unicode="&#xc1;" horiz-adv-x="1384" d="M-18 0l602 1585h233l586 -1585h-322l-118 326h-537l-127 -326h-317zM465 1780l246 344l209 -127l-310 -307zM512 571h367l-193 562h-4z" />
<glyph unicode="&#xc2;" horiz-adv-x="1384" d="M-18 0l602 1585h233l586 -1585h-322l-118 326h-537l-127 -326h-317zM344 1808l348 316l348 -316l-122 -135l-226 213l-225 -213zM512 571h367l-193 562h-4z" />
<glyph unicode="&#xc3;" horiz-adv-x="1384" d="M-18 0l602 1585h233l586 -1585h-322l-118 326h-537l-127 -326h-317zM303 1776q4 45 19.5 95t43 92t67.5 69.5t93 27.5q37 0 78 -13t80 -30q41 -16 75 -30.5t58 -14.5q43 0 61.5 25.5t34.5 60.5h170q-8 -49 -26.5 -100t-48 -93t-72.5 -69t-100 -27q-33 0 -69 14.5t-73 31 t-71.5 31t-63.5 14.5q-39 0 -58.5 -26t-29.5 -58h-168zM512 571h367l-193 562h-4z" />
<glyph unicode="&#xc4;" horiz-adv-x="1384" d="M-18 0l602 1585h233l586 -1585h-322l-118 326h-537l-127 -326h-317zM313 1935q0 68 48 116t116 48t116 -48t48 -116t-48 -115.5t-116 -47.5t-116 48t-48 115zM512 571h367l-193 562h-4zM745 1935q0 68 48 116t116 48t116 -48t48 -116t-48 -115.5t-116 -47.5t-116 48 t-48 115z" />
<glyph unicode="&#xc5;" horiz-adv-x="1384" d="M-18 0l602 1585h233l586 -1585h-322l-118 326h-537l-127 -326h-317zM487 1919q0 86 59.5 145.5t145.5 59.5t145.5 -59.5t59.5 -145.5q0 -43 -16.5 -81t-44 -65.5t-64.5 -44t-80 -16.5t-80 16.5t-64.5 44t-44 65.5t-16.5 81zM512 571h367l-193 562h-4zM608 1919 q0 -35 24.5 -60.5t59.5 -25.5t59.5 25.5t24.5 60.5t-24.5 59.5t-59.5 24.5t-59.5 -24.5t-24.5 -59.5z" />
<glyph unicode="&#xc6;" horiz-adv-x="1886" d="M-18 0l600 1544h761l95 -262h-512l125 -342h503l95 -262h-504l153 -416h512l93 -262h-826l-121 326h-534l-121 -326h-319zM510 571h364l-190 525h-4z" />
<glyph unicode="&#xc7;" horiz-adv-x="1230" d="M37 760q0 164 55 313.5t155.5 263t241 181t310.5 67.5q92 0 179 -23.5t165 -66.5v-360q-63 78 -152.5 120.5t-187.5 42.5q-109 0 -193 -46t-142 -120.5t-89 -170t-31 -195.5q0 -98 32 -191.5t90 -166t142 -117.5t189 -45q98 0 188 46t154 118v-359q-86 -41 -171 -66.5 t-179 -25.5q-164 0 -302.5 65.5t-238.5 175t-157.5 255t-57.5 305.5zM422 -344l201 303l188 -96l-238 -285z" />
<glyph unicode="&#xc8;" horiz-adv-x="999" d="M111 0v1544h798v-262h-497v-340h479v-262h-479v-418h497v-262h-798zM272 1997l209 127l246 -344l-145 -90z" />
<glyph unicode="&#xc9;" horiz-adv-x="999" d="M111 0v1544h798v-262h-497v-340h479v-262h-479v-418h497v-262h-798zM272 1780l246 344l209 -127l-309 -307z" />
<glyph unicode="&#xca;" horiz-adv-x="999" d="M111 0v1544h798v-262h-497v-340h479v-262h-479v-418h497v-262h-798zM152 1808l348 316l348 -316l-123 -135l-225 213l-226 -213z" />
<glyph unicode="&#xcb;" horiz-adv-x="999" d="M111 0v1544h798v-262h-497v-340h479v-262h-479v-418h497v-262h-798zM121 1935q0 68 48 116t116 48t116 -48t48 -116t-48.5 -115.5t-115.5 -47.5q-68 0 -116 48t-48 115zM553 1935q0 68 48 116t116 48t116 -48t48 -116t-48.5 -115.5t-115.5 -47.5q-68 0 -116 48t-48 115z " />
<glyph unicode="&#xcc;" horiz-adv-x="520" d="M33 1997l209 127l245 -344l-145 -90zM111 0v1544h301v-1544h-301z" />
<glyph unicode="&#xcd;" horiz-adv-x="520" d="M33 1780l246 344l208 -127l-309 -307zM111 0v1544h301v-1544h-301z" />
<glyph unicode="&#xce;" horiz-adv-x="520" d="M-88 1808l348 316l348 -316l-123 -135l-225 213l-225 -213zM111 0v1544h301v-1544h-301z" />
<glyph unicode="&#xcf;" horiz-adv-x="520" d="M-119 1935q0 68 48 116t116 48t116 -48t48 -116t-48 -115.5t-116 -47.5t-116 48t-48 115zM111 0v1544h301v-1544h-301zM313 1935q0 68 48 116t116 48t116 -48t48 -116t-48 -115.5t-116 -47.5t-116 48t-48 115z" />
<glyph unicode="&#xd0;" horiz-adv-x="1323" d="M-37 690v246h148v608h430q168 0 305 -59.5t235.5 -162.5t151.5 -244.5t53 -307.5q0 -164 -55 -304t-153.5 -243.5t-235.5 -163t-303 -59.5h-428v690h-148zM412 262h49q139 0 236.5 37t159 103.5t90 160.5t28.5 209q0 254 -128 382t-386 128h-49v-346h231v-246h-231v-428z " />
<glyph unicode="&#xd1;" horiz-adv-x="1554" d="M111 0v1585h217l813 -1079h4v1038h301v-1575h-217l-813 1080h-4v-1049h-301zM389 1776q4 45 19.5 95t43 92t67.5 69.5t93 27.5q37 0 78 -13t80 -30q41 -16 75 -30.5t58 -14.5q43 0 61.5 25.5t34.5 60.5h170q-8 -49 -26.5 -100t-48 -93t-72.5 -69t-100 -27q-33 0 -69 14.5 t-73 31t-71.5 31t-63.5 14.5q-39 0 -58.5 -26t-29.5 -58h-168z" />
<glyph unicode="&#xd2;" horiz-adv-x="1601" d="M37 774q0 162 56.5 309.5t156.5 259t240.5 177t310.5 65.5q168 0 309 -65.5t241.5 -177t157 -259t56.5 -309.5q0 -166 -56.5 -314.5t-157 -259t-241.5 -176t-309 -65.5q-170 0 -310.5 65.5t-240.5 176t-156.5 259t-56.5 314.5zM348 786q0 -88 35 -181t95.5 -171 t143.5 -128t179 -50t179 50t143.5 128t95 171t34.5 181q0 94 -33.5 184.5t-93 161t-143.5 113.5t-182 43t-182 -43t-143.5 -113.5t-93.5 -160.5t-34 -185zM573 1997l209 127l246 -344l-145 -90z" />
<glyph unicode="&#xd3;" horiz-adv-x="1601" d="M37 774q0 162 56.5 309.5t156.5 259t240.5 177t310.5 65.5q168 0 309 -65.5t241.5 -177t157 -259t56.5 -309.5q0 -166 -56.5 -314.5t-157 -259t-241.5 -176t-309 -65.5q-170 0 -310.5 65.5t-240.5 176t-156.5 259t-56.5 314.5zM348 786q0 -88 35 -181t95.5 -171 t143.5 -128t179 -50t179 50t143.5 128t95 171t34.5 181q0 94 -33.5 184.5t-93 161t-143.5 113.5t-182 43t-182 -43t-143.5 -113.5t-93.5 -160.5t-34 -185zM598 1780l246 344l209 -127l-310 -307z" />
<glyph unicode="&#xd4;" horiz-adv-x="1601" d="M37 774q0 162 56.5 309.5t156.5 259t240.5 177t310.5 65.5q168 0 309 -65.5t241.5 -177t157 -259t56.5 -309.5q0 -166 -56.5 -314.5t-157 -259t-241.5 -176t-309 -65.5q-170 0 -310.5 65.5t-240.5 176t-156.5 259t-56.5 314.5zM348 786q0 -88 35 -181t95.5 -171 t143.5 -128t179 -50t179 50t143.5 128t95 171t34.5 181q0 94 -33.5 184.5t-93 161t-143.5 113.5t-182 43t-182 -43t-143.5 -113.5t-93.5 -160.5t-34 -185zM453 1808l348 316l348 -316l-123 -135l-225 213l-226 -213z" />
<glyph unicode="&#xd5;" horiz-adv-x="1601" d="M37 774q0 162 56.5 309.5t156.5 259t240.5 177t310.5 65.5q168 0 309 -65.5t241.5 -177t157 -259t56.5 -309.5q0 -166 -56.5 -314.5t-157 -259t-241.5 -176t-309 -65.5q-170 0 -310.5 65.5t-240.5 176t-156.5 259t-56.5 314.5zM348 786q0 -88 35 -181t95.5 -171 t143.5 -128t179 -50t179 50t143.5 128t95 171t34.5 181q0 94 -33.5 184.5t-93 161t-143.5 113.5t-182 43t-182 -43t-143.5 -113.5t-93.5 -160.5t-34 -185zM412 1776q4 45 19 95t43 92t68 69.5t93 27.5q37 0 78 -13t80 -30q41 -16 74.5 -30.5t58.5 -14.5q43 0 61.5 25.5 t34.5 60.5h170q-8 -49 -26.5 -100t-48.5 -93t-73 -69t-100 -27q-33 0 -68.5 14.5t-72.5 31t-72 31t-63 14.5q-39 0 -58.5 -26t-29.5 -58h-168z" />
<glyph unicode="&#xd6;" horiz-adv-x="1601" d="M37 774q0 162 56.5 309.5t156.5 259t240.5 177t310.5 65.5q168 0 309 -65.5t241.5 -177t157 -259t56.5 -309.5q0 -166 -56.5 -314.5t-157 -259t-241.5 -176t-309 -65.5q-170 0 -310.5 65.5t-240.5 176t-156.5 259t-56.5 314.5zM348 786q0 -88 35 -181t95.5 -171 t143.5 -128t179 -50t179 50t143.5 128t95 171t34.5 181q0 94 -33.5 184.5t-93 161t-143.5 113.5t-182 43t-182 -43t-143.5 -113.5t-93.5 -160.5t-34 -185zM422 1935q0 68 48 116t116 48t116 -48t48 -116t-48.5 -115.5t-115.5 -47.5q-68 0 -116 48t-48 115zM854 1935 q0 68 48 116t116 48t116 -48t48 -116t-48.5 -115.5t-115.5 -47.5q-68 0 -116 48t-48 115z" />
<glyph unicode="&#xd7;" d="M68 172l354 352l-354 353l172 172l354 -355l350 355l172 -172l-352 -353l352 -352l-172 -172l-352 354l-352 -354z" />
<glyph unicode="&#xd8;" horiz-adv-x="1601" d="M-2 61l182 195q-80 111 -111.5 241t-31.5 277q0 162 56.5 309.5t156.5 259t240.5 177t310.5 65.5q61 -2 125.5 -13t127 -32.5t119 -53.5t101.5 -75l182 199l141 -131l-182 -203q72 -111 111 -239t39 -263q0 -166 -56.5 -314.5t-157 -259t-241.5 -176t-309 -65.5 q-276 0 -482 166l-182 -197zM348 786q0 -86 14.5 -158.5t49.5 -133.5l643 696q-53 49 -121 73.5t-133 24.5q-98 0 -182 -43t-143.5 -113.5t-93.5 -160.5t-34 -185zM535 342q59 -49 121.5 -67.5t144.5 -18.5q96 0 179 50t143.5 128t95 171t34.5 181q0 57 -20.5 125t-54.5 131 z" />
<glyph unicode="&#xd9;" horiz-adv-x="1351" d="M102 621v923h301v-864q0 -72 6.5 -153t34 -148.5t82 -112.5t150.5 -45t150.5 45t82 112.5t33.5 148.5t6 153v864h301v-923q0 -141 -31.5 -262t-100 -210.5t-177.5 -139.5t-264 -50q-156 0 -264.5 50t-177 139.5t-100.5 210t-32 262.5zM424 1997l209 127l246 -344 l-146 -90z" />
<glyph unicode="&#xda;" horiz-adv-x="1351" d="M102 621v923h301v-864q0 -72 6.5 -153t34 -148.5t82 -112.5t150.5 -45t150.5 45t82 112.5t33.5 148.5t6 153v864h301v-923q0 -141 -31.5 -262t-100 -210.5t-177.5 -139.5t-264 -50q-156 0 -264.5 50t-177 139.5t-100.5 210t-32 262.5zM498 1780l245 344l209 -127 l-309 -307z" />
<glyph unicode="&#xdb;" horiz-adv-x="1351" d="M102 621v923h301v-864q0 -72 6.5 -153t34 -148.5t82 -112.5t150.5 -45t150.5 45t82 112.5t33.5 148.5t6 153v864h301v-923q0 -141 -31.5 -262t-100 -210.5t-177.5 -139.5t-264 -50q-156 0 -264.5 50t-177 139.5t-100.5 210t-32 262.5zM328 1808l348 316l348 -316 l-123 -135l-225 213l-225 -213z" />
<glyph unicode="&#xdc;" horiz-adv-x="1351" d="M102 621v923h301v-864q0 -72 6.5 -153t34 -148.5t82 -112.5t150.5 -45t150.5 45t82 112.5t33.5 148.5t6 153v864h301v-923q0 -141 -31.5 -262t-100 -210.5t-177.5 -139.5t-264 -50q-156 0 -264.5 50t-177 139.5t-100.5 210t-32 262.5zM297 1935q0 68 48 116t116 48 t116 -48t48 -116t-48.5 -115.5t-115.5 -47.5q-68 0 -116 48t-48 115zM729 1935q0 68 48 116t116 48t116 -48t48 -116t-48 -115.5t-116 -47.5t-116 48t-48 115z" />
<glyph unicode="&#xdd;" horiz-adv-x="1202" d="M-33 1544h350l271 -536l295 536h352l-487 -835v-709h-302v709zM424 1780l246 344l209 -127l-310 -307z" />
<glyph unicode="&#xde;" horiz-adv-x="1081" d="M111 0v1544h301v-246h108q121 0 220.5 -25.5t169 -82.5t107.5 -148.5t38 -222.5q0 -248 -128 -367.5t-366 -119.5h-149v-332h-301zM412 582h61q68 0 119 9t86 34.5t52.5 72.5t17.5 123q0 74 -20.5 119t-57.5 69.5t-89.5 32t-115.5 7.5h-53v-467z" />
<glyph unicode="&#xdf;" horiz-adv-x="1148" d="M102 0v1237q0 115 25 211t79 165.5t140 108.5t211 39q100 0 183 -31.5t142.5 -90t92.5 -141.5t33 -183q0 -104 -37 -185t-119 -147q70 -31 120 -79t82.5 -109.5t48 -132t15.5 -142.5q0 -127 -41 -228.5t-114.5 -174t-177 -111.5t-228.5 -39h-41v250q68 -2 123 22.5 t95 67.5t61.5 101.5t21.5 123.5q0 68 -21.5 124.5t-60.5 97.5t-95 64.5t-124 23.5v241q104 -2 160.5 62.5t56.5 165.5q0 80 -46 140t-132 60q-72 0 -106.5 -44t-48 -105.5t-12.5 -129t1 -114.5v-1118h-287z" />
<glyph unicode="&#xe0;" horiz-adv-x="1157" d="M31 508q0 100 30.5 195.5t90 170t144.5 119.5t193 45q78 0 153 -32.5t128 -94.5v95h283v-1006h-283v92h-4q-47 -59 -121 -92t-151 -33q-111 0 -197 46t-145.5 122t-90 173.5t-30.5 199.5zM322 504q0 -51 16 -101.5t47 -90.5t75 -65.5t99 -25.5t99 25.5t76 65.5t48.5 90.5 t16.5 101.5t-16.5 101t-48.5 90t-76 64.5t-99 24.5t-99 -24.5t-75 -64.5t-47 -90t-16 -101zM352 1458l209 127l246 -344l-145 -90z" />
<glyph unicode="&#xe1;" horiz-adv-x="1157" d="M31 508q0 100 30.5 195.5t90 170t144.5 119.5t193 45q78 0 153 -32.5t128 -94.5v95h283v-1006h-283v92h-4q-47 -59 -121 -92t-151 -33q-111 0 -197 46t-145.5 122t-90 173.5t-30.5 199.5zM322 504q0 -51 16 -101.5t47 -90.5t75 -65.5t99 -25.5t99 25.5t76 65.5t48.5 90.5 t16.5 101.5t-16.5 101t-48.5 90t-76 64.5t-99 24.5t-99 -24.5t-75 -64.5t-47 -90t-16 -101zM401 1241l246 344l209 -127l-309 -307z" />
<glyph unicode="&#xe2;" horiz-adv-x="1157" d="M31 508q0 100 30.5 195.5t90 170t144.5 119.5t193 45q78 0 153 -32.5t128 -94.5v95h283v-1006h-283v92h-4q-47 -59 -121 -92t-151 -33q-111 0 -197 46t-145.5 122t-90 173.5t-30.5 199.5zM231 1270l349 315l348 -315l-123 -135l-225 213l-226 -213zM322 504 q0 -51 16 -101.5t47 -90.5t75 -65.5t99 -25.5t99 25.5t76 65.5t48.5 90.5t16.5 101.5t-16.5 101t-48.5 90t-76 64.5t-99 24.5t-99 -24.5t-75 -64.5t-47 -90t-16 -101z" />
<glyph unicode="&#xe3;" horiz-adv-x="1157" d="M31 508q0 100 30.5 195.5t90 170t144.5 119.5t193 45q78 0 153 -32.5t128 -94.5v95h283v-1006h-283v92h-4q-47 -59 -121 -92t-151 -33q-111 0 -197 46t-145.5 122t-90 173.5t-30.5 199.5zM190 1237q4 45 19.5 95t43.5 92t67.5 70t93.5 28q37 0 77.5 -13.5t79.5 -29.5 q41 -16 75 -30.5t59 -14.5q43 0 61 25.5t35 60.5h170q-8 -49 -26.5 -100.5t-48.5 -93.5t-73 -68.5t-100 -26.5q-33 0 -69 14.5t-72.5 30.5t-71.5 30.5t-64 14.5q-39 0 -58 -25.5t-30 -58.5h-168zM322 504q0 -51 16 -101.5t47 -90.5t75 -65.5t99 -25.5t99 25.5t76 65.5 t48.5 90.5t16.5 101.5t-16.5 101t-48.5 90t-76 64.5t-99 24.5t-99 -24.5t-75 -64.5t-47 -90t-16 -101z" />
<glyph unicode="&#xe4;" horiz-adv-x="1157" d="M31 508q0 100 30.5 195.5t90 170t144.5 119.5t193 45q78 0 153 -32.5t128 -94.5v95h283v-1006h-283v92h-4q-47 -59 -121 -92t-151 -33q-111 0 -197 46t-145.5 122t-90 173.5t-30.5 199.5zM201 1397q0 68 48 116t116 48t115.5 -48.5t47.5 -115.5q0 -68 -48 -116t-115 -48 q-68 0 -116 48t-48 116zM322 504q0 -51 16 -101.5t47 -90.5t75 -65.5t99 -25.5t99 25.5t76 65.5t48.5 90.5t16.5 101.5t-16.5 101t-48.5 90t-76 64.5t-99 24.5t-99 -24.5t-75 -64.5t-47 -90t-16 -101zM633 1397q0 68 48 116t116 48t116 -48.5t48 -115.5q0 -68 -48.5 -116 t-115.5 -48q-68 0 -116 48t-48 116z" />
<glyph unicode="&#xe5;" horiz-adv-x="1157" d="M31 508q0 100 30.5 195.5t90 170t144.5 119.5t193 45q78 0 153 -32.5t128 -94.5v95h283v-1006h-283v92h-4q-47 -59 -121 -92t-151 -33q-111 0 -197 46t-145.5 122t-90 173.5t-30.5 199.5zM322 504q0 -51 16 -101.5t47 -90.5t75 -65.5t99 -25.5t99 25.5t76 65.5t48.5 90.5 t16.5 101.5t-16.5 101t-48.5 90t-76 64.5t-99 24.5t-99 -24.5t-75 -64.5t-47 -90t-16 -101zM375 1380q0 86 59.5 145.5t145.5 59.5t145 -59.5t59 -145.5q0 -43 -16 -80.5t-44 -65.5t-64.5 -44t-79.5 -16t-80 16t-64.5 44t-44 65.5t-16.5 80.5zM496 1380q0 -35 24.5 -60.5 t59.5 -25.5t59.5 26t24.5 60q0 35 -24.5 59.5t-59.5 24.5t-59.5 -24.5t-24.5 -59.5z" />
<glyph unicode="&#xe6;" horiz-adv-x="1622" d="M23 297q0 82 31.5 143.5t85 103.5t123 62.5t143.5 20.5q59 0 119.5 -13.5t113.5 -42.5v33q0 111 -63.5 163t-167.5 52q-63 0 -125 -11t-121 -34v223q68 16 138.5 28.5t141.5 12.5q45 0 93.5 -8t92.5 -26.5t82 -48t62 -70.5q59 78 151.5 115.5t190.5 37.5q123 0 213 -43 t148.5 -116.5t87 -174t28.5 -212.5v-35h-661q0 -47 10 -95.5t32.5 -87t61.5 -63.5t94 -25q72 0 118 39t75 99l264 -43q-53 -152 -175 -233t-282 -81q-109 0 -205 39t-153 127q-63 -82 -159.5 -124t-198.5 -42q-76 0 -146.5 19.5t-124 60.5t-86 103.5t-32.5 146.5zM297 307 q0 -35 14.5 -61.5t39 -43t55 -24.5t61.5 -8q29 0 59.5 9t55 27.5t40 44t15.5 58.5q0 35 -17.5 60.5t-44 42t-58 24.5t-62.5 8q-61 0 -109.5 -35.5t-48.5 -101.5zM934 635h383q-6 39 -20.5 74.5t-39 64.5t-57.5 46.5t-74 17.5q-43 0 -76.5 -17.5t-57 -45t-38 -64.5t-20.5 -76 z" />
<glyph unicode="&#xe7;" horiz-adv-x="862" d="M31 500q0 113 39 211t108.5 170.5t164.5 114.5t210 42q59 0 119.5 -15t113.5 -48v-277q-47 47 -96 73t-115 26q-61 0 -108 -26t-79 -69t-49 -96t-17 -108q0 -59 18 -111.5t52 -92.5t83 -62.5t111 -22.5q59 0 110.5 26.5t89.5 69.5v-276q-59 -33 -120.5 -47.5 t-126.5 -14.5q-111 0 -204 43t-161 116t-105.5 169t-37.5 205zM238 -344l200 303l189 -96l-238 -285z" />
<glyph unicode="&#xe8;" horiz-adv-x="1026" d="M31 494q0 115 30.5 214t91 172.5t151.5 115.5t214 42t213 -43t148.5 -116.5t87 -174t28.5 -212.5v-35h-661q0 -47 10 -95.5t32.5 -87t61.5 -63.5t94 -25q72 0 118 39t75 99l264 -43q-53 -152 -175 -233t-282 -81q-117 0 -210 39t-157.5 109.5t-99 167t-34.5 211.5z M287 1458l209 127l245 -344l-145 -90zM342 635h383q-6 39 -20.5 74.5t-39 64.5t-57.5 46.5t-73 17.5q-43 0 -77 -17.5t-57.5 -45t-38 -64.5t-20.5 -76z" />
<glyph unicode="&#xe9;" horiz-adv-x="1026" d="M31 494q0 115 30.5 214t91 172.5t151.5 115.5t214 42t213 -43t148.5 -116.5t87 -174t28.5 -212.5v-35h-661q0 -47 10 -95.5t32.5 -87t61.5 -63.5t94 -25q72 0 118 39t75 99l264 -43q-53 -152 -175 -233t-282 -81q-117 0 -210 39t-157.5 109.5t-99 167t-34.5 211.5z M336 1241l246 344l209 -127l-310 -307zM342 635h383q-6 39 -20.5 74.5t-39 64.5t-57.5 46.5t-73 17.5q-43 0 -77 -17.5t-57.5 -45t-38 -64.5t-20.5 -76z" />
<glyph unicode="&#xea;" horiz-adv-x="1026" d="M31 494q0 115 30.5 214t91 172.5t151.5 115.5t214 42t213 -43t148.5 -116.5t87 -174t28.5 -212.5v-35h-661q0 -47 10 -95.5t32.5 -87t61.5 -63.5t94 -25q72 0 118 39t75 99l264 -43q-53 -152 -175 -233t-282 -81q-117 0 -210 39t-157.5 109.5t-99 167t-34.5 211.5z M166 1270l348 315l348 -315l-123 -135l-225 213l-225 -213zM342 635h383q-6 39 -20.5 74.5t-39 64.5t-57.5 46.5t-73 17.5q-43 0 -77 -17.5t-57.5 -45t-38 -64.5t-20.5 -76z" />
<glyph unicode="&#xeb;" horiz-adv-x="1026" d="M31 494q0 115 30.5 214t91 172.5t151.5 115.5t214 42t213 -43t148.5 -116.5t87 -174t28.5 -212.5v-35h-661q0 -47 10 -95.5t32.5 -87t61.5 -63.5t94 -25q72 0 118 39t75 99l264 -43q-53 -152 -175 -233t-282 -81q-117 0 -210 39t-157.5 109.5t-99 167t-34.5 211.5z M135 1397q0 68 48 116t116 48t116 -48.5t48 -115.5q0 -68 -48 -116t-116 -48t-116 48t-48 116zM342 635h383q-6 39 -20.5 74.5t-39 64.5t-57.5 46.5t-73 17.5q-43 0 -77 -17.5t-57.5 -45t-38 -64.5t-20.5 -76zM567 1397q0 68 48 116t116 48t116 -48.5t48 -115.5 q0 -68 -48 -116t-116 -48t-116 48t-48 116z" />
<glyph unicode="&#xec;" horiz-adv-x="518" d="M33 1458l209 127l245 -344l-145 -90zM117 0v1006h286v-1006h-286z" />
<glyph unicode="&#xed;" horiz-adv-x="518" d="M82 1241l246 344l209 -127l-310 -307zM117 0v1006h286v-1006h-286z" />
<glyph unicode="&#xee;" horiz-adv-x="518" d="M-88 1270l348 315l348 -315l-123 -135l-225 213l-225 -213zM117 0v1006h286v-1006h-286z" />
<glyph unicode="&#xef;" horiz-adv-x="518" d="M-119 1397q0 68 48 116t116 48t116 -48.5t48 -115.5q0 -68 -48 -116t-116 -48t-116 48t-48 116zM117 0v1006h286v-1006h-286zM313 1397q0 68 48 116t116 48t116 -48.5t48 -115.5q0 -68 -48 -116t-116 -48t-116 48t-48 116z" />
<glyph unicode="&#xf0;" horiz-adv-x="1122" d="M33 502q0 117 39 216t108.5 169.5t166.5 110.5t214 40q20 0 18.5 19.5t-16 48.5t-37 61.5t-43.5 57.5l-49 61l-229 -170l-135 139l237 177q-41 43 -80 82.5t-80 78.5l193 144q72 -72 158 -164l219 164l135 -140l-227 -167q88 -104 172 -218t149.5 -233t104.5 -240 t39 -237q0 -117 -38 -215.5t-108 -169t-167 -110.5t-216 -40t-216 40t-166.5 110.5t-107.5 169t-38 215.5zM324 502q0 -51 16 -101.5t47 -90.5t75 -64.5t99 -24.5t99.5 24.5t75 64.5t47 90.5t16.5 101.5t-16.5 102t-47 91t-75 64.5t-99.5 24.5t-99 -24.5t-75 -64.5t-47 -91 t-16 -102z" />
<glyph unicode="&#xf1;" horiz-adv-x="1105" d="M102 0v1006h287v-93h4q45 68 115 96.5t147 28.5q100 0 168 -33.5t108 -91t56.5 -134.5t16.5 -165v-614h-287v532q0 45 -2 94.5t-15.5 89.5t-45 66.5t-93.5 26.5q-63 0 -98 -32t-51.5 -79t-19.5 -101t-3 -99v-498h-287zM164 1237q4 45 19.5 95t43 92t67.5 70t93 28 q37 0 78 -13.5t80 -29.5q41 -16 74.5 -30.5t58.5 -14.5q43 0 61.5 25.5t34.5 60.5h170q-8 -49 -26.5 -100.5t-48 -93.5t-72.5 -68.5t-101 -26.5q-33 0 -68.5 14.5t-72.5 30.5t-71.5 30.5t-63.5 14.5q-39 0 -58.5 -25.5t-29.5 -58.5h-168z" />
<glyph unicode="&#xf2;" horiz-adv-x="1122" d="M33 502q0 117 39 216t108.5 169.5t166.5 110.5t214 40t214 -40t167 -110.5t109 -170t39 -215.5q0 -117 -38 -215.5t-108 -169t-167 -110.5t-216 -40t-216 40t-166.5 110.5t-107.5 169t-38 215.5zM324 502q0 -51 16 -101.5t47 -90.5t75 -64.5t99 -24.5t99.5 24.5t75 64.5 t47 90.5t16.5 101.5t-16.5 102t-47 91t-75 64.5t-99.5 24.5t-99 -24.5t-75 -64.5t-47 -91t-16 -102zM334 1458l209 127l245 -344l-145 -90z" />
<glyph unicode="&#xf3;" horiz-adv-x="1122" d="M33 502q0 117 39 216t108.5 169.5t166.5 110.5t214 40t214 -40t167 -110.5t109 -170t39 -215.5q0 -117 -38 -215.5t-108 -169t-167 -110.5t-216 -40t-216 40t-166.5 110.5t-107.5 169t-38 215.5zM324 502q0 -51 16 -101.5t47 -90.5t75 -64.5t99 -24.5t99.5 24.5t75 64.5 t47 90.5t16.5 101.5t-16.5 102t-47 91t-75 64.5t-99.5 24.5t-99 -24.5t-75 -64.5t-47 -91t-16 -102zM383 1241l246 344l209 -127l-310 -307z" />
<glyph unicode="&#xf4;" horiz-adv-x="1122" d="M33 502q0 117 39 216t108.5 169.5t166.5 110.5t214 40t214 -40t167 -110.5t109 -170t39 -215.5q0 -117 -38 -215.5t-108 -169t-167 -110.5t-216 -40t-216 40t-166.5 110.5t-107.5 169t-38 215.5zM213 1270l348 315l348 -315l-123 -135l-225 213l-225 -213zM324 502 q0 -51 16 -101.5t47 -90.5t75 -64.5t99 -24.5t99.5 24.5t75 64.5t47 90.5t16.5 101.5t-16.5 102t-47 91t-75 64.5t-99.5 24.5t-99 -24.5t-75 -64.5t-47 -91t-16 -102z" />
<glyph unicode="&#xf5;" horiz-adv-x="1122" d="M33 502q0 117 39 216t108.5 169.5t166.5 110.5t214 40t214 -40t167 -110.5t109 -170t39 -215.5q0 -117 -38 -215.5t-108 -169t-167 -110.5t-216 -40t-216 40t-166.5 110.5t-107.5 169t-38 215.5zM172 1237q4 45 19.5 95t43 92t67.5 70t93 28q37 0 78 -13.5t80 -29.5 q41 -16 75 -30.5t58 -14.5q43 0 61.5 25.5t34.5 60.5h170q-8 -49 -26.5 -100.5t-48 -93.5t-72.5 -68.5t-100 -26.5q-33 0 -69 14.5t-73 30.5t-71.5 30.5t-63.5 14.5q-39 0 -58.5 -25.5t-29.5 -58.5h-168zM324 502q0 -51 16 -101.5t47 -90.5t75 -64.5t99 -24.5t99.5 24.5 t75 64.5t47 90.5t16.5 101.5t-16.5 102t-47 91t-75 64.5t-99.5 24.5t-99 -24.5t-75 -64.5t-47 -91t-16 -102z" />
<glyph unicode="&#xf6;" horiz-adv-x="1122" d="M33 502q0 117 39 216t108.5 169.5t166.5 110.5t214 40t214 -40t167 -110.5t109 -170t39 -215.5q0 -117 -38 -215.5t-108 -169t-167 -110.5t-216 -40t-216 40t-166.5 110.5t-107.5 169t-38 215.5zM182 1397q0 68 48 116t116 48t116 -48.5t48 -115.5q0 -68 -48 -116 t-116 -48t-116 48t-48 116zM324 502q0 -51 16 -101.5t47 -90.5t75 -64.5t99 -24.5t99.5 24.5t75 64.5t47 90.5t16.5 101.5t-16.5 102t-47 91t-75 64.5t-99.5 24.5t-99 -24.5t-75 -64.5t-47 -91t-16 -102zM614 1397q0 68 48 116t116 48t116 -48.5t48 -115.5q0 -68 -48 -116 t-116 -48t-116 48t-48 116z" />
<glyph unicode="&#xf7;" d="M68 403v242h1048v-242h-1048zM422 129q0 70 49 120t121 50t121 -50t49 -120q0 -72 -49 -121t-121 -49t-121 49t-49 121zM422 920q0 70 49 120t121 50t121 -50.5t49 -119.5q0 -72 -49 -121t-121 -49t-121 49t-49 121z" />
<glyph unicode="&#xf8;" horiz-adv-x="1155" d="M-6 20l137 146q-47 76 -67.5 158t-20.5 178q0 117 39 216t108.5 169.5t167 110.5t213.5 40q45 0 92.5 -6t92.5 -18.5t87 -31.5t75 -48l143 151l98 -92l-139 -151q45 -76 62.5 -162t17.5 -178q0 -117 -38 -215.5t-107.5 -169t-167 -110.5t-216.5 -40q-88 0 -179 26.5 t-161 84.5l-141 -150zM334 502q0 -59 28 -123l345 358q-29 29 -62 38t-74 9q-55 0 -99 -24.5t-74.5 -64.5t-47 -91t-16.5 -102zM444 272q29 -27 57.5 -39t69.5 -12q55 0 99.5 24.5t75 64.5t47 90.5t16.5 101.5q0 35 -5 65.5t-20 59.5z" />
<glyph unicode="&#xf9;" horiz-adv-x="1095" d="M96 414v592h287v-545q0 -43 5 -88t22.5 -81t49.5 -59.5t87 -23.5t87 23.5t49 59.5t22.5 81t5.5 88v545h286v-592q0 -221 -112.5 -334t-337.5 -113t-338 113t-113 334zM297 1458l209 127l246 -344l-146 -90z" />
<glyph unicode="&#xfa;" horiz-adv-x="1095" d="M96 414v592h287v-545q0 -43 5 -88t22.5 -81t49.5 -59.5t87 -23.5t87 23.5t49 59.5t22.5 81t5.5 88v545h286v-592q0 -221 -112.5 -334t-337.5 -113t-338 113t-113 334zM371 1241l245 344l209 -127l-309 -307z" />
<glyph unicode="&#xfb;" horiz-adv-x="1095" d="M96 414v592h287v-545q0 -43 5 -88t22.5 -81t49.5 -59.5t87 -23.5t87 23.5t49 59.5t22.5 81t5.5 88v545h286v-592q0 -221 -112.5 -334t-337.5 -113t-338 113t-113 334zM201 1270l348 315l348 -315l-123 -135l-225 213l-225 -213z" />
<glyph unicode="&#xfc;" horiz-adv-x="1095" d="M96 414v592h287v-545q0 -43 5 -88t22.5 -81t49.5 -59.5t87 -23.5t87 23.5t49 59.5t22.5 81t5.5 88v545h286v-592q0 -221 -112.5 -334t-337.5 -113t-338 113t-113 334zM170 1397q0 68 48 116t116 48t116 -48.5t48 -115.5q0 -68 -48.5 -116t-115.5 -48q-68 0 -116 48 t-48 116zM602 1397q0 68 48 116t116 48t116 -48.5t48 -115.5q0 -68 -48 -116t-116 -48t-116 48t-48 116z" />
<glyph unicode="&#xfd;" horiz-adv-x="1064" d="M-37 1006h326l239 -572l258 572h320l-731 -1543h-316l332 691zM354 1241l246 344l209 -127l-309 -307z" />
<glyph unicode="&#xfe;" horiz-adv-x="1157" d="M102 -537v2274h287v-824q49 59 124 92t155 33q106 0 191 -46t144.5 -120.5t91 -170t31.5 -193.5q0 -102 -30.5 -199.5t-90 -173.5t-146.5 -122t-197 -46q-78 0 -152 33t-117 94h-4v-631h-287zM360 504q0 -51 16.5 -101.5t47.5 -90.5t75 -65.5t99 -25.5t99 25.5t75 65.5 t47.5 90.5t16.5 101.5t-16.5 101t-47.5 90t-75 64.5t-99 24.5t-99 -24.5t-75 -64.5t-47.5 -90t-16.5 -101z" />
<glyph unicode="&#xff;" horiz-adv-x="1064" d="M-37 1006h326l239 -572l258 572h320l-731 -1543h-316l332 691zM154 1397q0 68 47.5 116t115.5 48t116 -48.5t48 -115.5q0 -68 -48 -116t-116 -48t-115.5 48t-47.5 116zM586 1397q0 68 48 116t116 48t115.5 -48.5t47.5 -115.5q0 -68 -48 -116t-115 -48q-68 0 -116 48 t-48 116z" />
<glyph unicode="&#x152;" horiz-adv-x="2127" d="M37 768q0 156 54 302.5t152.5 261t234.5 184t300 69.5q135 0 260 -55t209 -160h4v174h787v-262h-488v-342h465v-262h-465v-416h488v-262h-787v174q-92 -106 -211.5 -160.5t-261.5 -54.5q-160 0 -296 69.5t-235.5 183.5t-154.5 259t-55 297zM324 768q0 -94 31.5 -186.5 t90 -164t141.5 -116.5t185 -45q104 0 187 45t142.5 116.5t91.5 164t32 186.5q0 96 -32 189.5t-91.5 167t-142.5 118.5t-187 45q-102 0 -185 -45t-141.5 -118.5t-90 -167t-31.5 -189.5z" />
<glyph unicode="&#x153;" horiz-adv-x="1787" d="M29 502q0 117 38.5 216t108.5 169.5t167 110.5t214 40q104 0 198.5 -41t168.5 -127q63 88 157.5 128t200.5 40q123 0 213 -43t148.5 -116.5t87 -174t28.5 -212.5v-35h-661q0 -47 10 -95.5t32.5 -87t61.5 -63.5t94 -25q72 0 118 39t75 99l264 -43q-53 -152 -175 -233 t-282 -81q-117 0 -213 41t-159 133q-68 -92 -165 -133t-202 -41q-119 0 -216 40t-167 110.5t-107.5 169t-37.5 215.5zM319 502q0 -51 16.5 -101.5t47.5 -90.5t75 -64.5t99 -24.5t99 24.5t75 64.5t47.5 90.5t16.5 101.5t-16.5 102t-47.5 91t-75 64.5t-99 24.5t-99 -24.5 t-75 -64.5t-47.5 -91t-16.5 -102zM1096 635h383q-6 39 -20.5 74.5t-39 64.5t-57.5 46.5t-74 17.5q-43 0 -76.5 -17.5t-57.5 -45t-38 -64.5t-20 -76z" />
<glyph unicode="&#x178;" horiz-adv-x="1202" d="M-33 1544h350l271 -536l295 536h352l-487 -835v-709h-302v709zM223 1935q0 68 48 116t116 48t116 -48t48 -116t-48 -115.5t-116 -47.5t-116 48t-48 115zM655 1935q0 68 48 116t116 48t116 -48t48 -116t-48 -115.5t-116 -47.5t-116 48t-48 115z" />
<glyph unicode="&#x2c6;" horiz-adv-x="819" d="M61 1270l349 315l348 -315l-123 -135l-225 213l-226 -213z" />
<glyph unicode="&#x2dc;" horiz-adv-x="819" d="M20 1237q4 45 19.5 95t43.5 92t67.5 70t93.5 28q37 0 77.5 -13.5t79.5 -29.5q41 -16 75 -30.5t59 -14.5q43 0 61 25.5t35 60.5h170q-8 -49 -26.5 -100.5t-48.5 -93.5t-73 -68.5t-100 -26.5q-33 0 -68.5 14.5t-72.5 30.5t-72 30.5t-64 14.5q-39 0 -58 -25.5t-30 -58.5 h-168z" />
<glyph unicode="&#x2000;" horiz-adv-x="1062" />
<glyph unicode="&#x2001;" horiz-adv-x="2124" />
<glyph unicode="&#x2002;" horiz-adv-x="1062" />
<glyph unicode="&#x2003;" horiz-adv-x="2124" />
<glyph unicode="&#x2004;" horiz-adv-x="708" />
<glyph unicode="&#x2005;" horiz-adv-x="531" />
<glyph unicode="&#x2006;" horiz-adv-x="354" />
<glyph unicode="&#x2007;" horiz-adv-x="354" />
<glyph unicode="&#x2008;" horiz-adv-x="265" />
<glyph unicode="&#x2009;" horiz-adv-x="424" />
<glyph unicode="&#x200a;" horiz-adv-x="118" />
<glyph unicode="&#x2010;" horiz-adv-x="675" d="M88 539v235h500v-235h-500z" />
<glyph unicode="&#x2011;" horiz-adv-x="675" d="M88 539v235h500v-235h-500z" />
<glyph unicode="&#x2012;" horiz-adv-x="675" d="M88 539v235h500v-235h-500z" />
<glyph unicode="&#x2013;" horiz-adv-x="1024" d="M0 539v235h1024v-235h-1024z" />
<glyph unicode="&#x2014;" horiz-adv-x="2048" d="M0 539v235h2048v-235h-2048z" />
<glyph unicode="&#x2018;" horiz-adv-x="606" d="M61 969l295 616l191 -22l-221 -623z" />
<glyph unicode="&#x2019;" horiz-adv-x="606" d="M61 963l224 622l262 -31l-295 -614z" />
<glyph unicode="&#x201a;" horiz-adv-x="606" d="M61 -303l224 622l262 -28l-295 -617z" />
<glyph unicode="&#x201c;" horiz-adv-x="999" d="M61 969l295 616l191 -22l-221 -623zM453 969l295 616l190 -22l-221 -623z" />
<glyph unicode="&#x201d;" horiz-adv-x="999" d="M61 963l224 622l262 -31l-295 -614zM453 963l223 622l262 -31l-295 -614z" />
<glyph unicode="&#x201e;" horiz-adv-x="999" d="M61 -303l224 622l262 -28l-295 -617zM453 -303l223 622l262 -28l-295 -617z" />
<glyph unicode="&#x2022;" horiz-adv-x="1181" d="M205 772q0 80 29.5 150.5t82 123t123 83t150.5 30.5t150.5 -30.5t122.5 -83t83 -123t31 -150.5t-31 -150.5t-84 -123t-122.5 -82t-149.5 -29.5t-149.5 29.5t-122 82t-83 123t-30.5 150.5z" />
<glyph unicode="&#x2026;" horiz-adv-x="2048" d="M160 150q0 76 53 128t129 52t129 -52.5t53 -127.5q0 -76 -53 -130.5t-129 -54.5t-129 54.5t-53 130.5zM842 143q0 76 53 128.5t129 52.5t129 -52.5t53 -128.5t-53 -130t-129 -54t-129 54.5t-53 129.5zM1524 143q0 76 53 128.5t129 52.5t129 -52.5t53 -128.5t-53 -130 t-129 -54t-129 54.5t-53 129.5z" />
<glyph unicode="&#x202f;" horiz-adv-x="424" />
<glyph unicode="&#x2039;" horiz-adv-x="643" d="M37 655l325 498l177 -115l-254 -383l256 -372l-179 -119z" />
<glyph unicode="&#x203a;" horiz-adv-x="643" d="M102 283l256 372l-254 383l177 115l325 -498l-325 -491z" />
<glyph unicode="&#x205f;" horiz-adv-x="531" />
<glyph unicode="&#x20ac;" d="M-66 541l33 135h131q-2 20 -3 40.5t-1 43.5v31q0 14 2 30h-162l33 135h148q57 270 256 447q207 182 485 182q180 0 344 -90l-67 -297q-109 100 -273 100q-160 0 -272 -100q-106 -88 -154 -242h637l-33 -135h-630q-2 -14 -2 -28v-27q0 -45 6 -90h592l-33 -135h-522 q55 -131 157 -209q111 -86 252 -86q88 0 156 28q57 27 119 88v-337q-141 -66 -283 -66q-264 0 -465 168q-195 164 -262 414h-189z" />
<glyph unicode="&#x2122;" horiz-adv-x="2048" d="M86 1391v153h696v-153h-260v-709h-176v709h-260zM940 682v862h305l201 -563h4l209 563h303v-862h-176v686h-4l-250 -686h-170l-242 686h-4v-686h-176z" />
<glyph unicode="&#x25fc;" horiz-adv-x="1003" d="M0 0v1004h1004v-1004h-1004z" />
<glyph unicode="&#xfb01;" horiz-adv-x="1114" d="M16 764v242h97v294q0 92 20.5 176.5t65.5 147t116.5 100t176.5 37.5q74 0 137 -32v-256q-29 14 -56.5 24t-60.5 10q-47 0 -70.5 -27.5t-33 -65.5t-9.5 -81v-73v-254h230v-242h-230v-764h-286v764h-97zM684 1427q0 70 49 120t121 50t121 -50t49 -120q0 -72 -49 -121 t-121 -49t-121 49.5t-49 120.5zM711 0v1006h286v-1006h-286z" />
<glyph unicode="&#xfb02;" horiz-adv-x="1112" d="M16 764v242h97v294q0 92 20.5 176.5t65.5 147t116.5 100t176.5 37.5q74 0 137 -32v-256q-29 14 -56.5 24t-60.5 10q-47 0 -70.5 -27.5t-33 -65.5t-9.5 -81v-73v-254h230v-242h-230v-764h-286v764h-97zM723 0v1737h287v-1737h-287z" />
</font>
</defs>
</svg>
